<svg width="16" height="16" viewBox="0 0 16 16" fill="none" xmlns="http://www.w3.org/2000/svg">
<path d="M8 16C12.4183 16 16 12.4183 16 8C16 3.58172 12.4183 0 8 0C3.58172 0 0 3.58172 0 8C0 12.4183 3.58172 16 8 16Z" fill="#0F93FF"/>
<path d="M6.37305 6.74699C6.72638 6.22699 7.26632 5.71354 7.89966 5.9602C8.05848 6.02265 8.19747 6.12684 8.30192 6.2618C8.40637 6.39676 8.47239 6.55756 8.493 6.72697C8.52599 6.9946 8.48683 7.26615 8.37964 7.51359C8.17964 8.04026 7.96631 8.56031 7.71297 9.06697C7.43838 9.6196 7.24098 10.2072 7.1263 10.8136C7.00876 11.2483 7.06377 11.7116 7.2797 12.1069C7.41264 12.283 7.59281 12.418 7.79932 12.4958C8.00583 12.5737 8.2302 12.5915 8.44637 12.547C8.95183 12.4398 9.39619 12.1411 9.68636 11.7136" stroke="white" stroke-linecap="round" stroke-linejoin="round"/>
<path d="M8.03906 4.56641C8.59135 4.56641 9.03906 4.11869 9.03906 3.56641C9.03906 3.01412 8.59135 2.56641 8.03906 2.56641C7.48678 2.56641 7.03906 3.01412 7.03906 3.56641C7.03906 4.11869 7.48678 4.56641 8.03906 4.56641Z" fill="white"/>
</svg>
