<svg width="24" height="24" viewBox="0 0 24 24" fill="none" xmlns="http://www.w3.org/2000/svg">
<mask id="path-1-inside-1_53110_27629" fill="white">
<path d="M21 10.5V13.5H19.5V17.25C19.5 17.5625 19.4414 17.8555 19.3242 18.1289C19.207 18.4023 19.0469 18.6406 18.8438 18.8438C18.6406 19.0469 18.4023 19.207 18.1289 19.3242C17.8555 19.4414 17.5625 19.5 17.25 19.5H14.1562L9 23.9062V19.5H5.25C4.9375 19.5 4.64453 19.4414 4.37109 19.3242C4.09766 19.207 3.85938 19.0469 3.65625 18.8438C3.45312 18.6406 3.29297 18.4023 3.17578 18.1289C3.05859 17.8555 3 17.5625 3 17.25V13.5H1.5V10.5H3V8.25C3 7.9375 3.05859 7.64453 3.17578 7.37109C3.29297 7.09766 3.45312 6.85938 3.65625 6.65625C3.85938 6.45312 4.09766 6.29297 4.37109 6.17578C4.64453 6.05859 4.9375 6 5.25 6H10.5V3.55078C10.2734 3.41797 10.0938 3.23438 9.96094 3C9.82812 2.76562 9.75781 2.51562 9.75 2.25C9.75 2.03906 9.78906 1.84375 9.86719 1.66406C9.94531 1.48438 10.0508 1.32812 10.1836 1.19531C10.3164 1.0625 10.4766 0.953125 10.6641 0.867188C10.8516 0.78125 11.0469 0.742188 11.25 0.75C11.4609 0.75 11.6562 0.789062 11.8359 0.867188C12.0156 0.945312 12.1719 1.05078 12.3047 1.18359C12.4375 1.31641 12.5469 1.47656 12.6328 1.66406C12.7188 1.85156 12.7578 2.04688 12.75 2.25C12.75 2.51562 12.6836 2.76562 12.5508 3C12.418 3.23438 12.2344 3.41797 12 3.55078V6H17.25C17.5625 6 17.8555 6.05859 18.1289 6.17578C18.4023 6.29297 18.6406 6.45312 18.8438 6.65625C19.0469 6.85938 19.207 7.09766 19.3242 7.37109C19.4414 7.64453 19.5 7.9375 19.5 8.25V10.5H21ZM18 8.25C18 8.04688 17.9258 7.87109 17.7773 7.72266C17.6289 7.57422 17.4531 7.5 17.25 7.5H5.25C5.04688 7.5 4.87109 7.57422 4.72266 7.72266C4.57422 7.87109 4.5 8.04688 4.5 8.25V17.25C4.5 17.4531 4.57422 17.6289 4.72266 17.7773C4.87109 17.9258 5.04688 18 5.25 18H10.5V20.6484L13.5938 18H17.25C17.4531 18 17.6289 17.9258 17.7773 17.7773C17.9258 17.6289 18 17.4531 18 17.25V8.25ZM8.02734 13.6641C8.45703 14.0938 8.94922 14.4219 9.50391 14.6484C10.0586 14.875 10.6406 14.9922 11.25 15C11.8594 15 12.4414 14.8867 12.9961 14.6602C13.5508 14.4336 14.043 14.1016 14.4727 13.6641L15.5273 14.7305C14.957 15.3008 14.3047 15.7383 13.5703 16.043C12.8359 16.3477 12.0625 16.5 11.25 16.5C10.4453 16.5 9.67578 16.3477 8.94141 16.043C8.20703 15.7383 7.55078 15.3008 6.97266 14.7305L8.02734 13.6641Z"/>
</mask>
<path d="M21 10.5V13.5H19.5V17.25C19.5 17.5625 19.4414 17.8555 19.3242 18.1289C19.207 18.4023 19.0469 18.6406 18.8438 18.8438C18.6406 19.0469 18.4023 19.207 18.1289 19.3242C17.8555 19.4414 17.5625 19.5 17.25 19.5H14.1562L9 23.9062V19.5H5.25C4.9375 19.5 4.64453 19.4414 4.37109 19.3242C4.09766 19.207 3.85938 19.0469 3.65625 18.8438C3.45312 18.6406 3.29297 18.4023 3.17578 18.1289C3.05859 17.8555 3 17.5625 3 17.25V13.5H1.5V10.5H3V8.25C3 7.9375 3.05859 7.64453 3.17578 7.37109C3.29297 7.09766 3.45312 6.85938 3.65625 6.65625C3.85938 6.45312 4.09766 6.29297 4.37109 6.17578C4.64453 6.05859 4.9375 6 5.25 6H10.5V3.55078C10.2734 3.41797 10.0938 3.23438 9.96094 3C9.82812 2.76562 9.75781 2.51562 9.75 2.25C9.75 2.03906 9.78906 1.84375 9.86719 1.66406C9.94531 1.48438 10.0508 1.32812 10.1836 1.19531C10.3164 1.0625 10.4766 0.953125 10.6641 0.867188C10.8516 0.78125 11.0469 0.742188 11.25 0.75C11.4609 0.75 11.6562 0.789062 11.8359 0.867188C12.0156 0.945312 12.1719 1.05078 12.3047 1.18359C12.4375 1.31641 12.5469 1.47656 12.6328 1.66406C12.7188 1.85156 12.7578 2.04688 12.75 2.25C12.75 2.51562 12.6836 2.76562 12.5508 3C12.418 3.23438 12.2344 3.41797 12 3.55078V6H17.25C17.5625 6 17.8555 6.05859 18.1289 6.17578C18.4023 6.29297 18.6406 6.45312 18.8438 6.65625C19.0469 6.85938 19.207 7.09766 19.3242 7.37109C19.4414 7.64453 19.5 7.9375 19.5 8.25V10.5H21ZM18 8.25C18 8.04688 17.9258 7.87109 17.7773 7.72266C17.6289 7.57422 17.4531 7.5 17.25 7.5H5.25C5.04688 7.5 4.87109 7.57422 4.72266 7.72266C4.57422 7.87109 4.5 8.04688 4.5 8.25V17.25C4.5 17.4531 4.57422 17.6289 4.72266 17.7773C4.87109 17.9258 5.04688 18 5.25 18H10.5V20.6484L13.5938 18H17.25C17.4531 18 17.6289 17.9258 17.7773 17.7773C17.9258 17.6289 18 17.4531 18 17.25V8.25ZM8.02734 13.6641C8.45703 14.0938 8.94922 14.4219 9.50391 14.6484C10.0586 14.875 10.6406 14.9922 11.25 15C11.8594 15 12.4414 14.8867 12.9961 14.6602C13.5508 14.4336 14.043 14.1016 14.4727 13.6641L15.5273 14.7305C14.957 15.3008 14.3047 15.7383 13.5703 16.043C12.8359 16.3477 12.0625 16.5 11.25 16.5C10.4453 16.5 9.67578 16.3477 8.94141 16.043C8.20703 15.7383 7.55078 15.3008 6.97266 14.7305L8.02734 13.6641Z" fill="#1C1B1F"/>
<path d="M21 10.5H37V-5.5H21V10.5ZM21 13.5V29.5H37V13.5H21ZM19.5 13.5V-2.5H3.5V13.5H19.5ZM14.1562 19.5V3.5H8.2511L3.76181 7.3363L14.1562 19.5ZM9 23.9062H-7V58.6252L19.3944 36.07L9 23.9062ZM9 19.5H25V3.5H9V19.5ZM3 13.5H19V-2.5H3V13.5ZM1.5 13.5H-14.5V29.5H1.5V13.5ZM1.5 10.5V-5.5H-14.5V10.5H1.5ZM3 10.5V26.5H19V10.5H3ZM10.5 6V22H26.5V6H10.5ZM10.5 3.55078H26.5V-5.61638L18.5915 -10.2524L10.5 3.55078ZM9.75 2.25H-6.25V2.48524L-6.24308 2.72038L9.75 2.25ZM11.25 0.75L10.6351 16.7382L10.9424 16.75H11.25V0.75ZM12.75 2.25L-3.23818 1.63507L-3.25 1.94242V2.25H12.75ZM12 3.55078L4.1118 -10.3696L-4 -5.77289V3.55078H12ZM12 6H-4V22H12V6ZM19.5 10.5H3.5V26.5H19.5V10.5ZM10.5 18H26.5V2H10.5V18ZM10.5 20.6484H-5.5V55.4074L20.9051 32.803L10.5 20.6484ZM13.5938 18V2H7.68064L3.18867 5.8454L13.5938 18ZM8.02734 13.6641L19.3411 2.35035L7.96466 -9.02603L-3.3487 2.41303L8.02734 13.6641ZM11.25 15L11.0449 30.9987L11.1474 31H11.25V15ZM14.4727 13.6641L25.8487 2.41303L14.433 -9.12956L3.05749 2.45274L14.4727 13.6641ZM15.5273 14.7305L26.8411 26.0442L38.0924 14.7928L26.9034 3.47944L15.5273 14.7305ZM6.97266 14.7305L-4.40339 3.47944L-15.6688 14.87L-4.26383 26.1209L6.97266 14.7305ZM21 10.5H5V13.5H21H37V10.5H21ZM21 13.5V-2.5H19.5V13.5V29.5H21V13.5ZM19.5 13.5H3.5V17.25H19.5H35.5V13.5H19.5ZM19.5 17.25H3.5C3.5 15.507 3.83874 13.6442 4.6179 11.8262L19.3242 18.1289L34.0305 24.4316C35.0441 22.0667 35.5 19.618 35.5 17.25H19.5ZM19.3242 18.1289L4.6179 11.8262C5.27346 10.2966 6.24254 8.81754 7.53004 7.53004L18.8438 18.8438L30.1575 30.1575C31.8512 28.4637 33.1406 26.5081 34.0305 24.4316L19.3242 18.1289ZM18.8438 18.8438L7.53004 7.53004C8.81754 6.24254 10.2966 5.27346 11.8262 4.6179L18.1289 19.3242L24.4316 34.0305C26.5081 33.1406 28.4637 31.8512 30.1575 30.1575L18.8438 18.8438ZM18.1289 19.3242L11.8262 4.6179C13.6442 3.83874 15.507 3.5 17.25 3.5V19.5V35.5C19.618 35.5 22.0667 35.0441 24.4316 34.0305L18.1289 19.3242ZM17.25 19.5V3.5H14.1562V19.5V35.5H17.25V19.5ZM14.1562 19.5L3.76181 7.3363L-1.39444 11.7425L9 23.9062L19.3944 36.07L24.5507 31.6637L14.1562 19.5ZM9 23.9062H25V19.5H9H-7V23.9062H9ZM9 19.5V3.5H5.25V19.5V35.5H9V19.5ZM5.25 19.5V3.5C6.99299 3.5 8.85576 3.83874 10.6738 4.6179L4.37109 19.3242L-1.93162 34.0305C0.433302 35.0441 2.88201 35.5 5.25 35.5V19.5ZM4.37109 19.3242L10.6738 4.6179C12.2034 5.27346 13.6825 6.24254 14.97 7.53004L3.65625 18.8438L-7.65746 30.1575C-5.96371 31.8512 -4.00812 33.1406 -1.93162 34.0305L4.37109 19.3242ZM3.65625 18.8438L14.97 7.53004C16.2575 8.81754 17.2265 10.2966 17.8821 11.8262L3.17578 18.1289L-11.5305 24.4316C-10.6406 26.5081 -9.35121 28.4637 -7.65746 30.1575L3.65625 18.8438ZM3.17578 18.1289L17.8821 11.8262C18.6613 13.6442 19 15.507 19 17.25H3H-13C-13 19.618 -12.5441 22.0667 -11.5305 24.4316L3.17578 18.1289ZM3 17.25H19V13.5H3H-13V17.25H3ZM3 13.5V-2.5H1.5V13.5V29.5H3V13.5ZM1.5 13.5H17.5V10.5H1.5H-14.5V13.5H1.5ZM1.5 10.5V26.5H3V10.5V-5.5H1.5V10.5ZM3 10.5H19V8.25H3H-13V10.5H3ZM3 8.25H19C19 9.99299 18.6613 11.8558 17.8821 13.6738L3.17578 7.37109L-11.5305 1.06838C-12.5441 3.4333 -13 5.88201 -13 8.25H3ZM3.17578 7.37109L17.8821 13.6738C17.2265 15.2034 16.2575 16.6825 14.97 17.97L3.65625 6.65625L-7.65746 -4.65746C-9.35121 -2.96371 -10.6406 -1.00812 -11.5305 1.06838L3.17578 7.37109ZM3.65625 6.65625L14.97 17.97C13.6825 19.2575 12.2034 20.2265 10.6738 20.8821L4.37109 6.17578L-1.93162 -8.53054C-4.00812 -7.64061 -5.96371 -6.35121 -7.65746 -4.65746L3.65625 6.65625ZM4.37109 6.17578L10.6738 20.8821C8.85576 21.6613 6.99299 22 5.25 22V6V-10C2.88201 -10 0.433302 -9.54408 -1.93162 -8.53054L4.37109 6.17578ZM5.25 6V22H10.5V6V-10H5.25V6ZM10.5 6H26.5V3.55078H10.5H-5.5V6H10.5ZM10.5 3.55078L18.5915 -10.2524C20.8594 -8.92296 22.6631 -7.038 23.8813 -4.8882L9.96094 3L-3.95942 10.8882C-2.47557 13.5067 -0.312483 15.7589 2.40849 17.3539L10.5 3.55078ZM9.96094 3L23.8813 -4.8882C25.0147 -2.88808 25.6732 -0.596284 25.7431 1.77962L9.75 2.25L-6.24308 2.72038C-6.15758 5.62753 -5.35844 8.41933 -3.95942 10.8882L9.96094 3ZM9.75 2.25H25.75C25.75 4.06394 25.4028 6.05996 24.5403 8.04368L9.86719 1.66406L-4.80593 -4.71556C-5.82467 -2.37246 -6.25 0.0141842 -6.25 2.25H9.75ZM9.86719 1.66406L24.5403 8.04368C23.8532 9.6241 22.8449 11.1615 21.4973 12.509L10.1836 1.19531L-1.13011 -10.1184C-2.7433 -8.50521 -3.96254 -6.65535 -4.80593 -4.71556L9.86719 1.66406ZM10.1836 1.19531L21.4973 12.509C20.1596 13.8467 18.7024 14.7835 17.3305 15.4122L10.6641 0.867188L3.99759 -13.6778C2.25077 -12.8772 0.473235 -11.7217 -1.13011 -10.1184L10.1836 1.19531ZM10.6641 0.867188L17.3305 15.4122C15.2723 16.3556 12.9766 16.8282 10.6351 16.7382L11.25 0.75L11.8649 -15.2382C9.1172 -15.3439 6.4308 -14.7931 3.99759 -13.6778L10.6641 0.867188ZM11.25 0.75V16.75C9.43606 16.75 7.44004 16.4028 5.45632 15.5403L11.8359 0.867188L18.2156 -13.8059C15.8725 -14.8247 13.4858 -15.25 11.25 -15.25V0.75ZM11.8359 0.867188L5.45632 15.5403C3.8759 14.8532 2.33854 13.8449 0.990979 12.4973L12.3047 1.18359L23.6184 -10.1301C22.0052 -11.7433 20.1554 -12.9625 18.2156 -13.8059L11.8359 0.867188ZM12.3047 1.18359L0.990979 12.4973C-0.346747 11.1596 -1.28347 9.70236 -1.91222 8.33054L12.6328 1.66406L27.1778 -5.00241C26.3772 -6.74923 25.2217 -8.52676 23.6184 -10.1301L12.3047 1.18359ZM12.6328 1.66406L-1.91222 8.33054C-2.85557 6.27233 -3.32824 3.97655 -3.23818 1.63507L12.75 2.25L28.7382 2.86493C28.8439 0.117198 28.2931 -2.5692 27.1778 -5.00241L12.6328 1.66406ZM12.75 2.25H-3.25C-3.25 -0.290081 -2.57965 -2.75277 -1.36957 -4.8882L12.5508 3L26.4711 10.8882C27.9468 8.28402 28.75 5.32133 28.75 2.25H12.75ZM12.5508 3L-1.36957 -4.8882C-0.0746288 -7.1734 1.8266 -9.07463 4.1118 -10.3696L12 3.55078L19.8882 17.4711C22.6421 15.9106 24.9106 13.6421 26.4711 10.8882L12.5508 3ZM12 3.55078H-4V6H12H28V3.55078H12ZM12 6V22H17.25V6V-10H12V6ZM17.25 6V22C15.507 22 13.6442 21.6613 11.8262 20.8821L18.1289 6.17578L24.4316 -8.53054C22.0667 -9.54408 19.618 -10 17.25 -10V6ZM18.1289 6.17578L11.8262 20.8821C10.2966 20.2265 8.81754 19.2575 7.53004 17.97L18.8438 6.65625L30.1575 -4.65746C28.4637 -6.35121 26.5081 -7.64061 24.4316 -8.53054L18.1289 6.17578ZM18.8438 6.65625L7.53004 17.97C6.24254 16.6825 5.27346 15.2034 4.6179 13.6738L19.3242 7.37109L34.0305 1.06838C33.1406 -1.00812 31.8512 -2.96371 30.1575 -4.65746L18.8438 6.65625ZM19.3242 7.37109L4.6179 13.6738C3.83874 11.8558 3.5 9.99299 3.5 8.25H19.5H35.5C35.5 5.88201 35.0441 3.4333 34.0305 1.06838L19.3242 7.37109ZM19.5 8.25H3.5V10.5H19.5H35.5V8.25H19.5ZM19.5 10.5V26.5H21V10.5V-5.5H19.5V10.5ZM18 8.25H34C34 3.64731 32.1279 -0.554245 29.0911 -3.59105L17.7773 7.72266L6.46364 19.0364C5.22472 17.7974 4.04716 16.1855 3.20434 14.1894C2.35713 12.1828 2 10.1464 2 8.25H18ZM17.7773 7.72266L29.0911 -3.59105C26.0542 -6.62786 21.8527 -8.5 17.25 -8.5V7.5V23.5C15.3536 23.5 13.3172 23.1429 11.3106 22.2957C9.31449 21.4528 7.70255 20.2753 6.46364 19.0364L17.7773 7.72266ZM17.25 7.5V-8.5H5.25V7.5V23.5H17.25V7.5ZM5.25 7.5V-8.5C0.647309 -8.5 -3.55424 -6.62786 -6.59105 -3.59105L4.72266 7.72266L16.0364 19.0364C14.7974 20.2753 13.1855 21.4528 11.1894 22.2957C9.18281 23.1429 7.14636 23.5 5.25 23.5V7.5ZM4.72266 7.72266L-6.59105 -3.59105C-9.62786 -0.554245 -11.5 3.64731 -11.5 8.25H4.5H20.5C20.5 10.1464 20.1429 12.1828 19.2957 14.1894C18.4528 16.1855 17.2753 17.7974 16.0364 19.0364L4.72266 7.72266ZM4.5 8.25H-11.5V17.25H4.5H20.5V8.25H4.5ZM4.5 17.25H-11.5C-11.5 21.8527 -9.62786 26.0542 -6.59105 29.0911L4.72266 17.7773L16.0364 6.46364C17.2753 7.70255 18.4528 9.31449 19.2957 11.3106C20.1429 13.3172 20.5 15.3536 20.5 17.25H4.5ZM4.72266 17.7773L-6.59105 29.0911C-3.55424 32.1279 0.647309 34 5.25 34V18V2C7.14636 2 9.18281 2.35713 11.1894 3.20434C13.1855 4.04716 14.7974 5.22472 16.0364 6.46364L4.72266 17.7773ZM5.25 18V34H10.5V18V2H5.25V18ZM10.5 18H-5.5V20.6484H10.5H26.5V18H10.5ZM10.5 20.6484L20.9051 32.803L23.9988 30.1546L13.5938 18L3.18867 5.8454L0.0949231 8.49383L10.5 20.6484ZM13.5938 18V34H17.25V18V2H13.5938V18ZM17.25 18V34C21.8527 34 26.0542 32.1279 29.0911 29.0911L17.7773 17.7773L6.46364 6.46364C7.70255 5.22472 9.31449 4.04716 11.3106 3.20434C13.3172 2.35713 15.3536 2 17.25 2V18ZM17.7773 17.7773L29.0911 29.0911C32.1279 26.0542 34 21.8527 34 17.25H18H2C2 15.3536 2.35713 13.3172 3.20434 11.3106C4.04716 9.31449 5.22472 7.70255 6.46364 6.46364L17.7773 17.7773ZM18 17.25H34V8.25H18H2V17.25H18ZM8.02734 13.6641L-3.28636 24.9778C-1.37407 26.8901 0.901018 28.4178 3.4539 29.4605L9.50391 14.6484L15.5539 -0.163634C16.9974 0.42597 18.2881 1.29744 19.3411 2.35035L8.02734 13.6641ZM9.50391 14.6484L3.4539 29.4605C5.89751 30.4586 8.46515 30.9656 11.0449 30.9987L11.25 15L11.4551 -0.998684C12.8161 -0.981236 14.2197 -0.708599 15.5539 -0.163634L9.50391 14.6484ZM11.25 15V31C13.8978 31 16.5376 30.4968 19.0461 29.4722L12.9961 14.6602L6.94609 -0.151915C8.3452 -0.723383 9.82095 -0.999999 11.25 -0.999999V15ZM12.9961 14.6602L19.0461 29.4722C21.6633 28.4032 23.9699 26.8282 25.8878 24.8754L14.4727 13.6641L3.05749 2.45274C4.11604 1.37494 5.43824 0.463968 6.94609 -0.151915L12.9961 14.6602ZM14.4727 13.6641L3.09661 24.9151L4.1513 25.9815L15.5273 14.7305L26.9034 3.47944L25.8487 2.41303L14.4727 13.6641ZM15.5273 14.7305L4.21364 3.41676C5.1049 2.5255 6.20685 1.77558 7.4388 1.26445L13.5703 16.043L19.7018 30.8215C22.4025 29.701 24.8092 28.0761 26.8411 26.0442L15.5273 14.7305ZM13.5703 16.043L7.4388 1.26445C8.69121 0.744836 10.0055 0.500001 11.25 0.500001V16.5V32.5C14.1195 32.5 16.9807 31.9505 19.7018 30.8215L13.5703 16.043ZM11.25 16.5V0.500001C12.5235 0.500001 13.8397 0.752791 15.0729 1.26445L8.94141 16.043L2.80989 30.8215C5.51188 31.9425 8.36716 32.5 11.25 32.5V16.5ZM8.94141 16.043L15.0729 1.26445C16.2838 1.76684 17.3519 2.49438 18.2091 3.34006L6.97266 14.7305L-4.26383 26.1209C-2.25032 28.1072 0.130252 29.7097 2.80989 30.8215L8.94141 16.043ZM6.97266 14.7305L18.3487 25.9815L19.4034 24.9151L8.02734 13.6641L-3.3487 2.41303L-4.40339 3.47944L6.97266 14.7305Z" fill="black" mask="url(#path-1-inside-1_53110_27629)"/>
</svg>
