<svg width="60" height="60" viewBox="0 0 60 60" fill="none" xmlns="http://www.w3.org/2000/svg">
<rect width="60" height="60" rx="30" fill="#1093FF"/>
<path d="M42 27.8908V31.8908H40V36.8908C40 37.3075 39.9219 37.6981 39.7656 38.0627C39.6094 38.4273 39.3958 38.745 39.125 39.0158C38.8542 39.2867 38.5365 39.5002 38.1719 39.6565C37.8073 39.8127 37.4167 39.8908 37 39.8908H32.875L26 45.7658V39.8908H21C20.5833 39.8908 20.1927 39.8127 19.8281 39.6565C19.4635 39.5002 19.1458 39.2867 18.875 39.0158C18.6042 38.745 18.3906 38.4273 18.2344 38.0627C18.0781 37.6981 18 37.3075 18 36.8908V31.8908H16V27.8908H18V24.8908C18 24.4742 18.0781 24.0835 18.2344 23.719C18.3906 23.3544 18.6042 23.0367 18.875 22.7658C19.1458 22.495 19.4635 22.2815 19.8281 22.1252C20.1927 21.969 20.5833 21.8908 21 21.8908H28V18.6252C27.6979 18.4481 27.4583 18.2033 27.2812 17.8908C27.1042 17.5783 27.0104 17.245 27 16.8908C27 16.6096 27.0521 16.3492 27.1562 16.1096C27.2604 15.87 27.401 15.6617 27.5781 15.4846C27.7552 15.3075 27.9688 15.1617 28.2188 15.0471C28.4688 14.9325 28.7292 14.8804 29 14.8908C29.2812 14.8908 29.5417 14.9429 29.7812 15.0471C30.0208 15.1512 30.2292 15.2919 30.4062 15.469C30.5833 15.646 30.7292 15.8596 30.8438 16.1096C30.9583 16.3596 31.0104 16.62 31 16.8908C31 17.245 30.9115 17.5783 30.7344 17.8908C30.5573 18.2033 30.3125 18.4481 30 18.6252V21.8908H37C37.4167 21.8908 37.8073 21.969 38.1719 22.1252C38.5365 22.2815 38.8542 22.495 39.125 22.7658C39.3958 23.0367 39.6094 23.3544 39.7656 23.719C39.9219 24.0835 40 24.4742 40 24.8908V27.8908H42ZM38 24.8908C38 24.62 37.901 24.3856 37.7031 24.1877C37.5052 23.9898 37.2708 23.8908 37 23.8908H21C20.7292 23.8908 20.4948 23.9898 20.2969 24.1877C20.099 24.3856 20 24.62 20 24.8908V36.8908C20 37.1617 20.099 37.396 20.2969 37.594C20.4948 37.7919 20.7292 37.8908 21 37.8908H28V41.4221L32.125 37.8908H37C37.2708 37.8908 37.5052 37.7919 37.7031 37.594C37.901 37.396 38 37.1617 38 36.8908V24.8908ZM24.7031 32.1096C25.276 32.6825 25.9323 33.12 26.6719 33.4221C27.4115 33.7242 28.1875 33.8804 29 33.8908C29.8125 33.8908 30.5885 33.7398 31.3281 33.4377C32.0677 33.1356 32.724 32.6929 33.2969 32.1096L34.7031 33.5315C33.9427 34.2919 33.0729 34.8752 32.0938 35.2815C31.1146 35.6877 30.0833 35.8908 29 35.8908C27.9271 35.8908 26.901 35.6877 25.9219 35.2815C24.9427 34.8752 24.0677 34.2919 23.2969 33.5315L24.7031 32.1096Z" fill="white"/>
</svg>
