<svg width="14" height="14" viewBox="0 0 14 14" fill="none" xmlns="http://www.w3.org/2000/svg">
<path d="M4.9987 0.666016V1.99935H8.9987V0.666016H10.332V1.99935H12.9987C13.3669 1.99935 13.6654 2.29783 13.6654 2.66602V13.3327C13.6654 13.7009 13.3669 13.9993 12.9987 13.9993H0.998698C0.630511 13.9993 0.332031 13.7009 0.332031 13.3327V2.66602C0.332031 2.29783 0.630511 1.99935 0.998698 1.99935H3.66536V0.666016H4.9987ZM12.332 7.33268H1.66536V12.666H12.332V7.33268ZM4.33203 9.33268V10.666H2.9987V9.33268H4.33203ZM10.9987 9.33268V10.666H5.66536V9.33268H10.9987ZM3.66536 3.33268H1.66536V5.99935H12.332V3.33268H10.332V4.66602H8.9987V3.33268H4.9987V4.66602H3.66536V3.33268Z" fill="#606060"/>
</svg>
