<svg width="134" height="104" viewBox="0 0 134 104" fill="none" xmlns="http://www.w3.org/2000/svg">
<path d="M1.39062 82.6146H30.2202" stroke="#6B85B6" stroke-width="0.946542" stroke-linecap="round"/>
<path d="M8.10938 86.3593H33.6746" stroke="#6B85B6" stroke-width="0.946542" stroke-linecap="round"/>
<path d="M103.779 82.6146H132.609" stroke="#6B85B6" stroke-width="0.946542" stroke-linecap="round"/>
<path d="M100.324 86.3593H125.889" stroke="#6B85B6" stroke-width="0.946542" stroke-linecap="round"/>
<path fill-rule="evenodd" clip-rule="evenodd" d="M89.5154 104H88.002L89.3576 87.1404H90.871L89.5154 104Z" fill="white"/>
<path fill-rule="evenodd" clip-rule="evenodd" d="M90.1148 60.2485H91.6287L90.9509 54.0291H89.4375L90.1148 60.2485Z" fill="white"/>
<path d="M41.1289 38.6522L65.3242 16.9243L92.4254 40.3011L75.0195 67.3116" stroke="#6B85B6" stroke-width="1.57757" stroke-linecap="round"/>
<path fill-rule="evenodd" clip-rule="evenodd" d="M65.2705 18.272L91.5657 40.5084L76.4199 60.3704L48.2008 36.507L65.2705 18.272Z" fill="#EDF0F6"/>
<path fill-rule="evenodd" clip-rule="evenodd" d="M40.2474 37.9061L75.9023 68.0576L74.4336 72.4407L36.1699 40.0832L40.2474 37.9061Z" stroke="#6B85B6" stroke-width="1.57757" stroke-linecap="round"/>
<path d="M51.1178 38.842L59.1997 45.6764" stroke="#A3B2D1" stroke-width="3.15514" stroke-linecap="round"/>
<path d="M55.278 33.922L63.3598 40.7564" stroke="#A3B2D1" stroke-width="3.15514" stroke-linecap="round"/>
<path d="M59.4382 29.0026L67.52 35.8369" stroke="#A3B2D1" stroke-width="3.15514" stroke-linecap="round"/>
<path d="M63.5983 24.083L71.6801 30.9174" stroke="#A3B2D1" stroke-width="3.15514" stroke-linecap="round"/>
<path fill-rule="evenodd" clip-rule="evenodd" d="M23.3946 6.3562L23.0021 7.69703L23.3946 9.03786L22.0537 8.64541L20.7129 9.03786L21.1053 7.69703L20.7129 6.3562L22.0537 6.74865L23.3946 6.3562Z" fill="#EDF0F6"/>
<path fill-rule="evenodd" clip-rule="evenodd" d="M15.0377 55.8206L14.6452 57.1614L15.0371 58.5022L13.6969 58.1098L12.3555 58.5022L12.7485 57.1614L12.356 55.8206L13.6969 56.213L15.0377 55.8206Z" fill="#EDF0F6"/>
<path fill-rule="evenodd" clip-rule="evenodd" d="M58.3268 0L57.9337 1.34083L58.3262 2.68166L56.9859 2.28978L55.6445 2.68223L56.0376 1.34083L55.6451 0.000569597L56.9859 0.393022L58.3268 0Z" fill="#7E94BF"/>
<path fill-rule="evenodd" clip-rule="evenodd" d="M18.0893 26.2395C17.162 27.1668 15.6656 27.1748 14.748 26.2566C13.8298 25.339 13.8378 23.8427 14.7651 22.9154C15.693 21.9875 17.1893 21.9795 18.1069 22.8977C19.0251 23.8153 19.0171 25.3117 18.0893 26.2395Z" stroke="#A3B2D1" stroke-width="0.946542" stroke-linecap="round"/>
<path fill-rule="evenodd" clip-rule="evenodd" d="M102.388 7.97437L103.609 10.2078L105.842 11.429L103.609 12.6508L102.388 14.8847L101.166 12.6508L98.9336 11.429L101.166 10.2078L102.388 7.97437Z" fill="#EDF0F6"/>
<path fill-rule="evenodd" clip-rule="evenodd" d="M124.032 16.5183L125.253 18.7517L127.486 19.9735L125.253 21.1947L124.032 23.4281L122.81 21.1947L120.578 19.9735L122.81 18.7517L124.032 16.5183Z" fill="#7E94BF"/>
<path fill-rule="evenodd" clip-rule="evenodd" d="M72.7123 79.2515C72.5254 77.5348 74.3992 74.9198 74.3992 74.9198C74.3992 74.9198 76.664 77.0839 76.8516 78.8006C77.0392 80.516 76.2638 82.009 75.121 82.1326C73.9774 82.2577 72.8999 80.9675 72.7123 79.2515Z" fill="#5975AD"/>
</svg>
