<svg width="15" height="16" viewBox="0 0 15 16" fill="none" xmlns="http://www.w3.org/2000/svg">
<path d="M7.5 0.5C11.6368 0.5 15 3.86316 15 8C15 12.1368 11.6368 15.5 7.5 15.5C3.36316 15.5 1.61524e-07 12.1368 0 8C0 3.86316 3.36316 0.5 7.5 0.5ZM7.5 1.95215C4.16842 1.95215 1.45215 4.66842 1.45215 8C1.45215 11.3316 4.16842 14.0479 7.5 14.0479C10.8316 14.0479 13.5479 11.3316 13.5479 8C13.5479 4.66842 10.8316 1.95215 7.5 1.95215ZM4.6582 6.2627C4.84756 6.26278 5.03669 6.34237 5.17871 6.48438L7.5 8.80566L9.82129 6.48438C10.1055 6.2002 10.5635 6.20018 10.8477 6.48438C11.1316 6.76859 11.1318 7.2266 10.8477 7.51074L8.00488 10.3525C7.73643 10.6208 7.24689 10.6209 6.97852 10.3525L4.13672 7.51074C3.85256 7.22658 3.85265 6.7686 4.13672 6.48438C4.27882 6.34227 4.46873 6.2627 4.6582 6.2627Z" fill="#606060"/>
</svg>
