<svg width="18" height="18" viewBox="0 0 18 18" fill="none" xmlns="http://www.w3.org/2000/svg">
<mask id="mask0_53672_3182" style="mask-type:alpha" maskUnits="userSpaceOnUse" x="0" y="0" width="18" height="18">
<rect width="18" height="18" fill="#D9D9D9"/>
</mask>
<g mask="url(#mask0_53672_3182)">
<path d="M3.78828 16.7812L2.73828 15.7125L4.95078 13.5H3.26328V12H7.50078V16.2375H6.00078V14.5688L3.78828 16.7812ZM9.00078 16.5V15H13.5008V6.75H9.75078V3H4.50078V10.5H3.00078V3C3.00078 2.5875 3.14766 2.23438 3.44141 1.94063C3.73516 1.64688 4.08828 1.5 4.50078 1.5H10.5008L15.0008 6V15C15.0008 15.4125 14.8539 15.7656 14.5602 16.0594C14.2664 16.3531 13.9133 16.5 13.5008 16.5H9.00078Z" fill="#1093FF"/>
</g>
</svg>
