<svg width="18" height="18" viewBox="0 0 18 18" fill="none" xmlns="http://www.w3.org/2000/svg">
<mask id="mask0_53586_2649" style="mask-type:alpha" maskUnits="userSpaceOnUse" x="0" y="0" width="18" height="18">
<rect width="18" height="18" fill="#D9D9D9"/>
</mask>
<g mask="url(#mask0_53586_2649)">
<path d="M14.832 16.9499L13.632 15.7499H3.75078C3.33828 15.7499 2.98516 15.603 2.69141 15.3092C2.39766 15.0155 2.25078 14.6624 2.25078 14.2499V4.3686L1.05078 3.14985L2.10078 2.09985L15.9008 15.8999L14.832 16.9499ZM3.75078 14.2499H12.132L3.75078 5.8686V14.2499ZM15.7508 13.6311L14.2508 12.1311V5.99985H8.11953L4.36953 2.24985H14.2508C14.6633 2.24985 15.0164 2.39673 15.3102 2.69048C15.6039 2.98423 15.7508 3.33735 15.7508 3.74985V13.6311Z" fill="#1093FF"/>
</g>
</svg>
