<svg width="18" height="18" viewBox="0 0 18 18" fill="none" xmlns="http://www.w3.org/2000/svg">
<mask id="mask0_53816_1573" style="mask-type:alpha" maskUnits="userSpaceOnUse" x="0" y="0" width="18" height="18">
<rect width="18" height="18" fill="#D9D9D9"/>
</mask>
<g mask="url(#mask0_53816_1573)">
<path d="M4.875 15.0002C3.7375 15.0002 2.76562 14.6064 1.95938 13.8189C1.15313 13.0314 0.75 12.0689 0.75 10.9314C0.75 9.95645 1.04375 9.0877 1.63125 8.3252C2.21875 7.5627 2.9875 7.0752 3.9375 6.8627C4.15 5.9627 4.68125 5.10645 5.53125 4.29395C6.38125 3.48145 7.2875 3.0752 8.25 3.0752C8.6625 3.0752 9.01562 3.22207 9.30938 3.51582C9.60313 3.80957 9.75 4.1627 9.75 4.5752V9.1127L10.95 7.9502L12 9.0002L9 12.0002L6 9.0002L7.05 7.9502L8.25 9.1127V4.5752C7.3 4.7502 6.5625 5.20957 6.0375 5.95332C5.5125 6.69707 5.25 7.4627 5.25 8.2502H4.875C4.15 8.2502 3.53125 8.50645 3.01875 9.01895C2.50625 9.53145 2.25 10.1502 2.25 10.8752C2.25 11.6002 2.50625 12.2189 3.01875 12.7314C3.53125 13.2439 4.15 13.5002 4.875 13.5002H13.875C14.4 13.5002 14.8438 13.3189 15.2062 12.9564C15.5687 12.5939 15.75 12.1502 15.75 11.6252C15.75 11.1002 15.5687 10.6564 15.2062 10.2939C14.8438 9.93145 14.4 9.7502 13.875 9.7502H12.75V8.2502C12.75 7.6502 12.6125 7.09082 12.3375 6.57207C12.0625 6.05332 11.7 5.6127 11.25 5.2502V3.50645C12.175 3.94395 12.9063 4.59082 13.4438 5.44707C13.9813 6.30332 14.25 7.2377 14.25 8.2502C15.1125 8.3502 15.8281 8.72207 16.3969 9.36582C16.9656 10.0096 17.25 10.7627 17.25 11.6252C17.25 12.5627 16.9219 13.3596 16.2656 14.0158C15.6094 14.6721 14.8125 15.0002 13.875 15.0002H4.875Z" fill="#1093FF"/>
</g>
</svg>
