<svg width="18" height="18" viewBox="0 0 18 18" fill="none" xmlns="http://www.w3.org/2000/svg">
<mask id="mask0_53586_2981" style="mask-type:alpha" maskUnits="userSpaceOnUse" x="0" y="0" width="18" height="18">
<rect width="18" height="18" fill="#D9D9D9"/>
</mask>
<g mask="url(#mask0_53586_2981)">
<path d="M4.875 15C3.7375 15 2.76562 14.6062 1.95938 13.8187C1.15313 13.0312 0.75 12.0687 0.75 10.9312C0.75 9.9562 1.04375 9.08745 1.63125 8.32495C2.21875 7.56245 2.9875 7.07495 3.9375 6.86245C4.15 5.96245 4.68125 5.1062 5.53125 4.2937C6.38125 3.4812 7.2875 3.07495 8.25 3.07495C8.6625 3.07495 9.01562 3.22183 9.30938 3.51558C9.60313 3.80933 9.75 4.16245 9.75 4.57495V9.11245L10.95 7.94995L12 8.99995L9 12L6 8.99995L7.05 7.94995L8.25 9.11245V4.57495C7.3 4.74995 6.5625 5.20933 6.0375 5.95308C5.5125 6.69683 5.25 7.46245 5.25 8.24995H4.875C4.15 8.24995 3.53125 8.5062 3.01875 9.0187C2.50625 9.5312 2.25 10.15 2.25 10.875C2.25 11.6 2.50625 12.2187 3.01875 12.7312C3.53125 13.2437 4.15 13.5 4.875 13.5H13.875C14.4 13.5 14.8438 13.3187 15.2062 12.9562C15.5687 12.5937 15.75 12.15 15.75 11.625C15.75 11.1 15.5687 10.6562 15.2062 10.2937C14.8438 9.9312 14.4 9.74995 13.875 9.74995H12.75V8.24995C12.75 7.64995 12.6125 7.09058 12.3375 6.57183C12.0625 6.05308 11.7 5.61245 11.25 5.24995V3.5062C12.175 3.9437 12.9063 4.59058 13.4438 5.44683C13.9813 6.30308 14.25 7.23745 14.25 8.24995C15.1125 8.34995 15.8281 8.72183 16.3969 9.36558C16.9656 10.0093 17.25 10.7625 17.25 11.625C17.25 12.5625 16.9219 13.3593 16.2656 14.0156C15.6094 14.6718 14.8125 15 13.875 15H4.875Z" fill="#1093FF"/>
</g>
</svg>
