<svg width="134" height="87" viewBox="0 0 134 87" fill="none" xmlns="http://www.w3.org/2000/svg">
<g opacity="0.5">
<path fill-rule="evenodd" clip-rule="evenodd" d="M1.39062 82.6149H30.2202H1.39062Z" fill="#0F93FF"/>
<path d="M1.39062 82.6149H30.2202" stroke="#0F93FF" stroke-width="0.946542" stroke-linecap="round"/>
<path fill-rule="evenodd" clip-rule="evenodd" d="M8.10938 86.359H33.6746H8.10938Z" fill="#2B80EC"/>
<path d="M8.10938 86.359H33.6746" stroke="#0F93FF" stroke-width="0.946542" stroke-linecap="round"/>
<path fill-rule="evenodd" clip-rule="evenodd" d="M103.779 82.6149H132.609H103.779Z" fill="#0F93FF"/>
<path d="M103.779 82.6149H132.609" stroke="#0F93FF" stroke-width="0.946542" stroke-linecap="round"/>
<path fill-rule="evenodd" clip-rule="evenodd" d="M100.324 86.359H125.889H100.324Z" fill="#0F93FF"/>
<path d="M100.324 86.359H125.889" stroke="#0F93FF" stroke-width="0.946542" stroke-linecap="round"/>
<path fill-rule="evenodd" clip-rule="evenodd" d="M23.3965 6.35645L23.0041 7.69728L23.3965 9.03811L22.0557 8.64565L20.7148 9.03811L21.1073 7.69728L20.7148 6.35645L22.0557 6.7489L23.3965 6.35645Z" fill="#EDF0F6"/>
<path fill-rule="evenodd" clip-rule="evenodd" d="M15.0377 55.8203L14.6452 57.1611L15.0371 58.502L13.6969 58.1095L12.3555 58.502L12.7485 57.1611L12.356 55.8203L13.6969 56.2128L15.0377 55.8203Z" fill="#EDF0F6"/>
<path fill-rule="evenodd" clip-rule="evenodd" d="M58.3268 0L57.9337 1.34083L58.3262 2.68166L56.9859 2.28978L55.6445 2.68223L56.0376 1.34083L55.6451 0.000569597L56.9859 0.393022L58.3268 0Z" fill="#2B80EC"/>
<path fill-rule="evenodd" clip-rule="evenodd" d="M18.0893 26.2392C17.162 27.1665 15.6656 27.1744 14.748 26.2563C13.8298 25.3386 13.8378 23.8423 14.7651 22.915C15.693 21.9871 17.1893 21.9792 18.1069 22.8973C19.0251 23.815 19.0171 25.3113 18.0893 26.2392Z" stroke="#D3E3FF" stroke-width="0.946542" stroke-linecap="round"/>
<path fill-rule="evenodd" clip-rule="evenodd" d="M102.388 7.97461L103.609 10.208L105.842 11.4292L103.609 12.651L102.388 14.885L101.166 12.651L98.9336 11.4292L101.166 10.208L102.388 7.97461Z" fill="#EDF0F6"/>
<path d="M63 75C78.1878 75 90.5 62.6878 90.5 47.5C90.5 32.3122 78.1878 20 63 20C47.8122 20 35.5 32.3122 35.5 47.5C35.5 62.6878 47.8122 75 63 75Z" fill="#A3C9FF"/>
<path fill-rule="evenodd" clip-rule="evenodd" d="M124.032 16.5186L125.253 18.7519L127.486 19.9737L125.253 21.1949L124.032 23.4283L122.81 21.1949L120.578 19.9737L122.81 18.7519L124.032 16.5186Z" fill="#2B80EC"/>
<path d="M68 20.5C82.9117 20.5 95 32.5883 95 47.5C95 62.4117 82.9117 74.5 68 74.5C53.0883 74.5 41 62.4117 41 47.5C41 32.5883 53.0883 20.5 68 20.5Z" stroke="#0F93FF"/>
<path d="M62.4082 43.1928C63.6228 41.4053 65.4788 39.6403 67.6559 40.4882C68.2019 40.7029 68.6797 41.061 69.0387 41.5249C69.3977 41.9889 69.6247 42.5416 69.6955 43.124C69.8089 44.044 69.6743 44.9774 69.3059 45.828C68.6184 47.6384 67.885 49.4261 67.0142 51.1677C66.0703 53.0674 65.3917 55.0873 64.9975 57.1716C64.5935 58.6661 64.7825 60.2587 65.5248 61.6173C65.9818 62.2229 66.6011 62.6868 67.311 62.9545C68.0209 63.2222 68.7922 63.2832 69.5353 63.1302C71.2728 62.7618 72.8003 61.7352 73.7977 60.2656" stroke="white" stroke-width="3" stroke-linecap="round" stroke-linejoin="round"/>
<path d="M68.1367 35.697C70.0352 35.697 71.5742 34.158 71.5742 32.2595C71.5742 30.361 70.0352 28.822 68.1367 28.822C66.2382 28.822 64.6992 30.361 64.6992 32.2595C64.6992 34.158 66.2382 35.697 68.1367 35.697Z" fill="white"/>
</g>
</svg>
