<svg width="46" height="46" viewBox="0 0 46 46" fill="none" xmlns="http://www.w3.org/2000/svg">
<rect width="46" height="46" rx="23" fill="#E8F5FE"/>
<g clip-path="url(#clip0_53110_33524)">
<path d="M21.8444 27.8298L22.5757 26.1547C23.2266 24.664 24.3981 23.4773 25.8594 22.8287L27.8725 21.9351C28.5125 21.651 28.5125 20.7199 27.8725 20.4358L25.9223 19.5701C24.4234 18.9048 23.2309 17.6742 22.5911 16.1326L21.8503 14.3474C21.5754 13.685 20.66 13.685 20.3851 14.3474L19.6442 16.1326C19.0045 17.6742 17.812 18.9048 16.3131 19.5701L14.3628 20.4358C13.7228 20.7199 13.7228 21.651 14.3628 21.9351L16.3759 22.8287C17.8373 23.4773 19.0088 24.664 19.6596 26.1547L20.391 27.8298C20.6722 28.4737 21.5632 28.4737 21.8444 27.8298ZM29.1669 31.9084L29.3725 31.437C29.7392 30.5965 30.3996 29.9272 31.2236 29.5612L31.8573 29.2796C32.2 29.1273 32.2 28.6292 31.8573 28.477L31.2591 28.2112C30.4139 27.8357 29.7416 27.1417 29.3812 26.2726L29.17 25.7632C29.0228 25.4082 28.5319 25.4082 28.3847 25.7632L28.1735 26.2726C27.8132 27.1417 27.1409 27.8357 26.2957 28.2112L25.6974 28.477C25.3548 28.6292 25.3548 29.1273 25.6974 29.2796L26.3311 29.5612C27.1552 29.9272 27.8155 30.5965 28.1822 31.437L28.3879 31.9084C28.5384 32.2535 29.0163 32.2535 29.1669 31.9084Z" fill="#2B80EC"/>
</g>
<defs>
<clipPath id="clip0_53110_33524">
<rect width="20" height="20" fill="white" transform="translate(13 13)"/>
</clipPath>
</defs>
</svg>
