<svg width="24" height="24" viewBox="0 0 24 24" fill="none" xmlns="http://www.w3.org/2000/svg">
<path d="M12.4986 14.5V8.5M9.49865 11.5H15.4986M12.4986 20C17.193 20 20.9986 16.1944 20.9986 11.5C20.9986 6.80558 17.193 3 12.4986 3C7.80423 3 3.99865 6.80558 3.99865 11.5C3.99865 12.45 4.1545 13.3636 4.44203 14.2166C4.55022 14.5376 4.60432 14.6981 4.61408 14.8214C4.62372 14.9432 4.61643 15.0286 4.58631 15.1469C4.5558 15.2668 4.48845 15.3915 4.35375 15.6408L2.71809 18.6684C2.48478 19.1002 2.36812 19.3161 2.39423 19.4828C2.41697 19.6279 2.5024 19.7557 2.62783 19.8322C2.77183 19.9201 3.01595 19.8948 3.5042 19.8444L8.62522 19.315C8.7803 19.299 8.85784 19.291 8.92852 19.2937C8.99803 19.2963 9.0471 19.3029 9.11489 19.3185C9.18381 19.3344 9.27048 19.3678 9.44381 19.4345C10.3918 19.7998 11.4218 20 12.4986 20Z" stroke="#606060" stroke-width="2" stroke-linecap="round" stroke-linejoin="round"/>
</svg>
