<svg width="14" height="13" viewBox="0 0 14 13" fill="none" xmlns="http://www.w3.org/2000/svg">
<path fill-rule="evenodd" clip-rule="evenodd" d="M5 2.4C5.28695 2.4 5.54171 2.58362 5.63246 2.85585L6.61038 5.78962L9.54415 6.76754C9.81638 6.85829 10 7.11305 10 7.4C10 7.68695 9.81638 7.94171 9.54415 8.03246L6.61038 9.01038L5.63246 11.9442C5.54171 12.2164 5.28695 12.4 5 12.4C4.71305 12.4 4.45829 12.2164 4.36754 11.9442L3.38962 9.01038L0.455848 8.03246C0.18362 7.94171 0 7.68695 0 7.4C0 7.11305 0.18362 6.85829 0.455848 6.76754L3.38962 5.78962L4.36754 2.85585C4.45829 2.58362 4.71305 2.4 5 2.4ZM5 5.17485L4.54912 6.52748C4.48277 6.72655 4.32656 6.88277 4.12749 6.94912L2.77485 7.4L4.12749 7.85088C4.32656 7.91724 4.48277 8.07345 4.54912 8.27252L5 9.62515L5.45088 8.27252C5.51723 8.07345 5.67345 7.91724 5.87252 7.85088L7.22515 7.4L5.87252 6.94912C5.67345 6.88277 5.51723 6.72655 5.45088 6.52748L5 5.17485Z" fill="#45464B"/>
<path fill-rule="evenodd" clip-rule="evenodd" d="M10.3333 0C10.5055 0 10.6584 0.110172 10.7128 0.273509L11.2329 1.83377L12.7932 2.35386C12.9565 2.40831 13.0667 2.56116 13.0667 2.73333C13.0667 2.90551 12.9565 3.05836 12.7932 3.11281L11.2329 3.63289L10.7128 5.19316C10.6584 5.35649 10.5055 5.46667 10.3333 5.46667C10.1612 5.46667 10.0083 5.35649 9.95386 5.19316L9.43377 3.63289L7.87351 3.11281C7.71017 3.05836 7.6 2.90551 7.6 2.73333C7.6 2.56116 7.71017 2.40831 7.87351 2.35386L9.43377 1.83377L9.95386 0.273509C10.0083 0.110172 10.1612 0 10.3333 0Z" fill="#45464B"/>
</svg>
