<svg width="49" height="48" viewBox="0 0 49 48" fill="none" xmlns="http://www.w3.org/2000/svg">
<rect x="0.666016" width="48" height="48" rx="24" fill="#F8F8F8"/>
<path d="M25.6161 14.9271C25.3171 14.0061 24.0141 14.0061 23.7141 14.9271L22.1951 19.6011C22.1297 19.8017 22.0025 19.9765 21.8317 20.1005C21.6608 20.2244 21.4552 20.2911 21.2441 20.2911H16.3301C15.3621 20.2911 14.9581 21.5311 15.7421 22.1011L19.7181 24.9891C19.8889 25.1132 20.016 25.2883 20.0812 25.4891C20.1465 25.6899 20.1464 25.9063 20.0811 26.1071L18.5631 30.7811C18.2631 31.7021 19.3181 32.4691 20.1011 31.8991L24.0771 29.0111C24.248 28.8869 24.4539 28.8199 24.6651 28.8199C24.8764 28.8199 25.0822 28.8869 25.2531 29.0111L29.2291 31.8991C30.0121 32.4691 31.0671 31.7031 30.7671 30.7811L29.2491 26.1071C29.1839 25.9063 29.1838 25.6899 29.249 25.4891C29.3142 25.2883 29.4413 25.1132 29.6121 24.9891L33.5881 22.1011C34.3711 21.5311 33.9691 20.2911 33.0001 20.2911H28.0851C27.8743 20.2909 27.6688 20.2241 27.4982 20.1002C27.3276 19.9763 27.2005 19.8016 27.1351 19.6011L25.6161 14.9271Z" stroke="#919191" stroke-width="2" stroke-linecap="round" stroke-linejoin="round"/>
</svg>
